<svg xmlns="http://www.w3.org/2000/svg" width="1056" height="467" viewBox="0 0 1056 467"><defs><clipPath id="a"><path d="M198.25 20h127v56h-127z"/></clipPath><clipPath id="b"><path d="M198.25 115.5h127v56h-127z"/></clipPath><clipPath id="c"><path d="M53.583 255.5h127v56h-127z"/></clipPath><clipPath id="d"><path d="M43.25 351.5h68.667v56H43.25z"/></clipPath><clipPath id="e"><path d="M122.083 351.5h68.667v56h-68.667z"/></clipPath><clipPath id="f"><path d="M302.25 255.5h127v56h-127z"/></clipPath><clipPath id="g"><path d="M254.083 351.5h68.667v56h-68.667z"/></clipPath><clipPath id="h"><path d="M332.75 351.5h68.667v56H332.75z"/></clipPath><clipPath id="i"><path d="M411.417 351.5h68.666v56h-68.666z"/></clipPath><clipPath id="j"><path d="M730.333 20h127v56h-127z"/></clipPath><clipPath id="k"><path d="M693.083 115.5h201.5v56h-201.5z"/></clipPath><clipPath id="l"><path d="M575.083 255.167h68.667v56h-68.667z"/></clipPath><clipPath id="m"><path d="M653.75 255.167h68.667v56H653.75z"/></clipPath><clipPath id="n"><path d="M786.583 255.167h68.667v56h-68.667z"/></clipPath><clipPath id="o"><path d="M865.25 255.167h68.667v56H865.25z"/></clipPath><clipPath id="p"><path d="M943.917 255.167h68.666v56h-68.666z"/></clipPath></defs><g fill="none"><title>Diagram 1</title><path fill="#fff" d="M0 0h1056v467H0z"/><title>Layer 1</title><title>optional component - grey</title><path stroke="#616161" stroke-dasharray="1 3" stroke-linecap="round" stroke-linejoin="round" d="M3.417 96h516.666v351.5H3.417z"/><title>zone external - blue</title><path fill="#eaedef" d="M23.417 211.5H210.75v216H23.417z"/><text fill="#757575" transform="translate(33.417 226.5)"><tspan x="0" y="9" font-family="Roboto" font-size="10" font-weight="400">VM1</tspan></text><title>Cloud Load Balancing</title><path fill="#fff" d="M198.25 20h127v56h-127z"/><path stroke="#dfdfdf" stroke-linecap="round" stroke-linejoin="round" stroke-width="2" d="M198.25 20h127v56h-127z" clip-path="url(#a)"/><text fill="#212121" transform="translate(249.25 34)"><tspan x="0" y="11" font-family="Roboto" font-size="12" font-weight="400">Load</tspan> <tspan x="0" y="25" font-family="Roboto" font-size="12" font-weight="400">Balancer</tspan></text><title>Cloud Load Balancing</title><title>Fill-1</title><path fill="#4285f4" d="M241.916 46.714l-5.754-10.006c-.461-.8-1.297-1.286-2.158-1.286h-11.508c-.922 0-1.727.54-2.158 1.285l-5.754 9.986a2.51 2.51 0 0 0 0 2.502l5.754 10.052c.46.798 1.297 1.331 2.158 1.331h11.508c.922 0 1.727-.581 2.158-1.326l5.754-10.006a2.566 2.566 0 0 0 0-2.532"/><title>Fill-4</title><path fill="#000" fill-opacity=".07" d="M231.67 43.29l-5.516 1.72-1.276.73 1.84 1.84-2.515.147.055 2.369-1.397 1.77 8.711 8.712h2.432c.922 0 1.727-.581 2.158-1.326l4.188-7.283z"/><title>Fill-7</title><path fill="#fff" d="M227.813 45.594h.875v4.758h-.875z"/><title>Fill-9</title><path fill="#fff" d="M224.079 47.781h.671v2.844h-.875v-2.64c0-.113.091-.204.204-.204"/><title>Fill-10</title><path fill="#fff" d="M231.75 47.781h.671c.113 0 .204.091.204.204v2.64h-.875z"/><title>Fill-11</title><path fill="#fff" d="M224.093 47.344h8.315c.12 0 .217.097.217.217v.658h-8.75v-.658c0-.12.097-.217.218-.217z"/><title>Fill-12</title><path fill="#fff" d="M224.962 43.188h6.576c.117 0 .212.094.212.211v2.202a.212.212 0 0 1-.212.212h-6.576a.212.212 0 0 1-.212-.212v-2.202c0-.117.095-.211.212-.211"/><title>Fill-13</title><path fill="#fff" d="M222.995 49.75h2.417c.117 0 .213.096.213.214v1.76a.214.214 0 0 1-.213.214h-2.417a.214.214 0 0 1-.214-.214v-1.76c0-.118.096-.214.214-.214"/><title>Fill-14</title><path fill="#fff" d="M231.089 49.75h2.416c.118 0 .214.096.214.214v1.76a.213.213 0 0 1-.214.214h-2.416a.214.214 0 0 1-.214-.214v-1.76c0-.118.096-.214.214-.214"/><title>Fill-15</title><path fill="#fff" d="M226.94 49.75h2.62c.122 0 .221.1.221.222v1.744a.221.221 0 0 1-.221.221h-2.62a.222.222 0 0 1-.221-.221v-1.744c0-.123.1-.222.221-.222"/><path fill="#5086ec" d="M198.25 115.5h127v56h-127z"/><path stroke="#dfdfdf" stroke-linecap="round" stroke-linejoin="round" stroke-width="2" d="M198.25 115.5h127v56h-127z" clip-path="url(#b)"/><text fill="#fff" transform="translate(221.25 136.5)"><tspan x=".012" y="11" font-family="Roboto" font-size="12" font-weight="400">Instance Group</tspan></text><path fill="#5086ec" d="M53.583 255.5h127v56h-127z"/><path stroke="#dfdfdf" stroke-linecap="round" stroke-linejoin="round" stroke-width="2" d="M53.583 255.5h127v56h-127z" clip-path="url(#c)"/><text fill="#fff" transform="translate(95.583 276.5)"><tspan x=".359" y="11" font-family="Roboto" font-size="12" font-weight="400">iptables</tspan></text><path fill="#fff" d="M43.25 351.5h68.667v56H43.25z"/><path stroke="#dfdfdf" stroke-linecap="round" stroke-linejoin="round" stroke-width="2" d="M43.25 351.5h68.667v56H43.25z" clip-path="url(#d)"/><text fill="#212121" transform="translate(62.25 372.5)"><tspan x=".093" y="11" font-family="Roboto" font-size="12" font-weight="400">Pod 1</tspan></text><path fill="#fff" d="M122.083 351.5h68.667v56h-68.667z"/><path stroke="#dfdfdf" stroke-linecap="round" stroke-linejoin="round" stroke-width="2" d="M122.083 351.5h68.667v56h-68.667z" clip-path="url(#e)"/><text fill="#212121" transform="translate(141.083 372.5)"><tspan x=".093" y="11" font-family="Roboto" font-size="12" font-weight="400">Pod 2</tspan></text><g><title>zone external - blue</title><path fill="#eaedef" d="M231.417 211.5h268.667v216H231.417z"/><text fill="#757575" transform="translate(241.417 226.5)"><tspan x="0" y="9" font-family="Roboto" font-size="10" font-weight="400">VM2</tspan></text></g><g><path fill="#5086ec" d="M302.25 255.5h127v56h-127z"/><path stroke="#dfdfdf" stroke-linecap="round" stroke-linejoin="round" stroke-width="2" d="M302.25 255.5h127v56h-127z" clip-path="url(#f)"/><text fill="#fff" transform="translate(344.25 276.5)"><tspan x=".359" y="11" font-family="Roboto" font-size="12" font-weight="400">iptables</tspan></text></g><g><path fill="#fff" d="M254.083 351.5h68.667v56h-68.667z"/><path stroke="#dfdfdf" stroke-linecap="round" stroke-linejoin="round" stroke-width="2" d="M254.083 351.5h68.667v56h-68.667z" clip-path="url(#g)"/><text fill="#212121" transform="translate(273.083 372.5)"><tspan x=".093" y="11" font-family="Roboto" font-size="12" font-weight="400">Pod 3</tspan></text></g><g><path fill="#fff" d="M332.75 351.5h68.667v56H332.75z"/><path stroke="#dfdfdf" stroke-linecap="round" stroke-linejoin="round" stroke-width="2" d="M332.75 351.5h68.667v56H332.75z" clip-path="url(#h)"/><text fill="#212121" transform="translate(351.75 372.5)"><tspan x=".093" y="11" font-family="Roboto" font-size="12" font-weight="400">Pod 4</tspan></text></g><g><path fill="#fff" d="M411.417 351.5h68.667v56h-68.667z"/><path stroke="#dfdfdf" stroke-linecap="round" stroke-linejoin="round" stroke-width="2" d="M411.417 351.5h68.667v56h-68.667z" clip-path="url(#i)"/><text fill="#212121" transform="translate(430.417 372.5)"><tspan x=".093" y="11" font-family="Roboto" font-size="12" font-weight="400">Pod 5</tspan></text></g><g><path fill="#616161" d="M261.25 76v39.5a.5.5 0 0 0 1 0V76a.5.5 0 0 0-1 0z"/></g><g><path fill="#616161" d="M260.75 172v20.5a.5.5 0 0 0 1 0V172a.5.5 0 0 0-1 0z"/></g><g><path fill="#616161" d="M117.583 245.6v-53.06l-.5.5H365.75l-.5-.5v53.06a.5.5 0 0 0 1 0v-53.06a.5.5 0 0 0-.5-.5H117.083a.5.5 0 0 0-.5.5v53.06a.5.5 0 0 0 1 0zm248.667 8v-8h-1v8zm3.146-4.354l-4 4h.708l-4-4-.708.708 4 4 .354.353.354-.353 4-4zM117.583 253.6v-8h-1v8zm3.147-4.354l-4 4h.707l-4-4-.707.708 4 4 .353.353.354-.353 4-4z"/></g><g><path fill="#616161" d="M116.083 311.5V332a.5.5 0 0 0 1 0v-20.5a.5.5 0 1 0-1 0z"/></g><g><path fill="#616161" d="M78.083 341.6V332l-.5.5h288.834a.5.5 0 0 0 0-1H77.583a.5.5 0 0 0-.5.5v9.6a.5.5 0 0 0 1 0zm0 8v-8h-1v8zm3.147-4.354l-4 4h.707l-4-4-.707.708 4 4 .353.353.354-.353 4-4z"/></g><g><path fill="#616161" d="M366.083 312.25v29.35a.5.5 0 0 0 1 0v-29.35a.5.5 0 1 0-1 0zm1 37.35v-8h-1v8zm3.147-4.354l-4 4h.707l-4-4-.707.708 4 4 .353.353.354-.353 4-4z"/></g><g><path fill="#616161" d="M287.417 332v9.6a.5.5 0 1 0 1 0V332a.5.5 0 0 0-1 0zm1 17.6v-8h-1v8zm3.146-4.354l-4 4h.707l-4-4-.707.708 4 4 .354.353.353-.353 4-4z"/></g><g><title>optional component - grey</title><path stroke="#616161" stroke-dasharray="1 3" stroke-linecap="round" stroke-linejoin="round" d="M535.083 96h517.5v255.167h-517.5z"/><title>zone external - blue</title><path fill="#eaedef" d="M555.083 211.5h187.333v119.667H555.083z"/><text fill="#757575" transform="translate(565.083 226.5)"><tspan x="0" y="9" font-family="Roboto" font-size="10" font-weight="400">VM1</tspan></text><title>Cloud Load Balancing</title><path fill="#fff" d="M730.333 20h127v56h-127z"/><path stroke="#dfdfdf" stroke-linecap="round" stroke-linejoin="round" stroke-width="2" d="M730.333 20h127v56h-127z" clip-path="url(#j)"/><text fill="#212121" transform="translate(781.333 34)"><tspan x="0" y="11" font-family="Roboto" font-size="12" font-weight="400">Load</tspan> <tspan x="0" y="25" font-family="Roboto" font-size="12" font-weight="400">Balancer</tspan></text><title>Cloud Load Balancing</title><title>Fill-1</title><path fill="#4285f4" d="M774 46.714l-5.755-10.006c-.46-.8-1.297-1.286-2.157-1.286H754.58c-.923 0-1.728.54-2.158 1.285l-5.755 9.986a2.51 2.51 0 0 0 0 2.502l5.754 10.052c.461.798 1.297 1.331 2.158 1.331h11.508c.922 0 1.727-.581 2.158-1.326L774 49.246a2.566 2.566 0 0 0 0-2.532"/><title>Fill-4</title><path fill="#000" fill-opacity=".07" d="M763.754 43.29l-5.517 1.72-1.276.73 1.841 1.84-2.515.147.054 2.369-1.397 1.77 8.712 8.712h2.431c.922 0 1.727-.581 2.158-1.326l4.188-7.283z"/><title>Fill-7</title><path fill="#fff" d="M759.896 45.594h.875v4.758h-.875z"/><title>Fill-9</title><path fill="#fff" d="M756.162 47.781h.671v2.844h-.875v-2.64c0-.113.092-.204.204-.204"/><title>Fill-10</title><path fill="#fff" d="M763.833 47.781h.672c.112 0 .203.091.203.204v2.64h-.875z"/><title>Fill-11</title><path fill="#fff" d="M756.176 47.344h8.315c.12 0 .217.097.217.217v.658h-8.75v-.658c0-.12.098-.217.218-.217z"/><title>Fill-12</title><path fill="#fff" d="M757.045 43.188h6.577a.21.21 0 0 1 .211.211v2.202a.212.212 0 0 1-.211.212h-6.577a.212.212 0 0 1-.212-.212v-2.202c0-.117.095-.211.212-.211"/><title>Fill-13</title><path fill="#fff" d="M755.078 49.75h2.417c.118 0 .213.096.213.214v1.76a.214.214 0 0 1-.213.214h-2.417a.213.213 0 0 1-.213-.214v-1.76c0-.118.095-.214.213-.214"/><title>Fill-14</title><path fill="#fff" d="M763.172 49.75h2.417c.118 0 .213.096.213.214v1.76a.214.214 0 0 1-.213.214h-2.417a.214.214 0 0 1-.214-.214v-1.76c0-.118.096-.214.214-.214"/><title>Fill-15</title><path fill="#fff" d="M759.024 49.75h2.62c.121 0 .22.1.22.222v1.744a.22.22 0 0 1-.22.221h-2.62a.222.222 0 0 1-.222-.221v-1.744c0-.123.1-.222.222-.222"/><path fill="#479a5f" d="M693.083 115.5h201.5v56h-201.5z"/><path stroke="#dfdfdf" stroke-linecap="round" stroke-linejoin="round" stroke-width="2" d="M693.083 115.5h201.5v56h-201.5z" clip-path="url(#k)"/><text fill="#fff" transform="translate(711.083 136.5)"><tspan x=".482" y="11" font-family="Roboto" font-size="12" font-weight="400">Network Endpoint Group (NEG)</tspan></text><path fill="#fff" d="M575.083 255.167h68.667v56h-68.667z"/><path stroke="#dfdfdf" stroke-linecap="round" stroke-linejoin="round" stroke-width="2" d="M575.083 255.167h68.667v56h-68.667z" clip-path="url(#l)"/><text fill="#212121" transform="translate(594.083 276.167)"><tspan x=".093" y="11" font-family="Roboto" font-size="12" font-weight="400">Pod 1</tspan></text><path fill="#fff" d="M653.75 255.167h68.667v56H653.75z"/><path stroke="#dfdfdf" stroke-linecap="round" stroke-linejoin="round" stroke-width="2" d="M653.75 255.167h68.667v56H653.75z" clip-path="url(#m)"/><text fill="#212121" transform="translate(672.75 276.167)"><tspan x=".093" y="11" font-family="Roboto" font-size="12" font-weight="400">Pod 2</tspan></text><g><title>zone external - blue</title><path fill="#eaedef" d="M763.75 211.5h268.833v119.667H763.75z"/><text fill="#757575" transform="translate(773.75 226.5)"><tspan x="0" y="9" font-family="Roboto" font-size="10" font-weight="400">VM2</tspan></text></g><g><path fill="#fff" d="M786.583 255.167h68.667v56h-68.667z"/><path stroke="#dfdfdf" stroke-linecap="round" stroke-linejoin="round" stroke-width="2" d="M786.583 255.167h68.667v56h-68.667z" clip-path="url(#n)"/><text fill="#212121" transform="translate(805.583 276.167)"><tspan x=".093" y="11" font-family="Roboto" font-size="12" font-weight="400">Pod 3</tspan></text></g><g><path fill="#fff" d="M865.25 255.167h68.667v56H865.25z"/><path stroke="#dfdfdf" stroke-linecap="round" stroke-linejoin="round" stroke-width="2" d="M865.25 255.167h68.667v56H865.25z" clip-path="url(#o)"/><text fill="#212121" transform="translate(884.25 276.167)"><tspan x=".093" y="11" font-family="Roboto" font-size="12" font-weight="400">Pod 4</tspan></text></g><g><path fill="#fff" d="M943.917 255.167h68.667v56h-68.667z"/><path stroke="#dfdfdf" stroke-linecap="round" stroke-linejoin="round" stroke-width="2" d="M943.917 255.167h68.667v56h-68.667z" clip-path="url(#p)"/><text fill="#212121" transform="translate(962.917 276.167)"><tspan x=".093" y="11" font-family="Roboto" font-size="12" font-weight="400">Pod 5</tspan></text></g><g><path fill="#616161" d="M793.333 76v39.5a.5.5 0 0 0 1 0V76a.5.5 0 1 0-1 0z"/></g><g><path fill="#616161" d="M793.333 171.8v20.5a.5.5 0 0 0 1 0v-20.5a.5.5 0 1 0-1 0z"/></g><g><path fill="#616161" d="M609.917 245.267v-52.6l-.5.5H898.75a.5.5 0 0 0 0-1H609.417a.5.5 0 0 0-.5.5v52.6a.5.5 0 1 0 1 0zm0 8v-8h-1v8zm3.146-4.354l-4 4h.707l-4-4-.707.707 4 4 .354.354.353-.354 4-4z"/></g><g><path fill="#616161" d="M819.917 193.667v51.6a.5.5 0 1 0 1 0v-51.6a.5.5 0 0 0-1 0zm1 59.6v-8h-1v8zm3.146-4.354l-4 4h.707l-4-4-.707.707 4 4 .354.354.353-.354 4-4z"/></g><g><path fill="#616161" d="M898.583 192.75v52.517a.5.5 0 0 0 1 0V192.75a.5.5 0 1 0-1 0zm1 60.517v-8h-1v8zm3.147-4.354l-4 4h.707l-4-4-.707.707 4 4 .353.354.354-.354 4-4z"/></g></g></g></svg>